<svg version="1.1" id="emblem" xmlns="http://www.w3.org/2000/svg" x="0" y="0" viewBox="0 0 800 800" xml:space="preserve">
  <style>
    .st0{fill:#fff}
    .st1,.st3,.st4,.st5,.st7,.thorn{fill:none;stroke:#fff;stroke-width:2;stroke-miterlimit:10}
    .st3,.st4,.st5,.st7{stroke:#fff;stroke-linecap:round;stroke-linejoin:round}
    .st4,.st5,.st7{stroke:#fff;stroke-width:4}
    .st5,.st7{stroke-width:3}
    .st7{stroke:#fff;stroke-width:7;stroke-dasharray:1,15}
    #dotted-ring-inner2{stroke-dasharray:1,18;}
  </style>
  <g id="Thorns">
    <circle class="st1" cx="400" cy="305.2" r="6"/>
    <circle class="st1" cx="400" cy="497.4" r="6"/>
    <circle class="st1" cx="305.1" cy="400.1" r="6"/>
    <circle class="st1" cx="497.4" cy="400" r="6"/>
    <circle class="st1" cx="332.9" cy="333" r="6"/>
    <circle class="st1" cx="468.8" cy="468.9" r="6"/>
    <circle class="st1" cx="332.9" cy="467.1" r="6"/>
    <circle class="st1" cx="468.8" cy="331.2" r="6"/>
    <path class="thorn" d="M423.7 327.6s-17.4-14-7.1-32.4c0 0-16.6-5.4-16.6-20.5 0 15.1-16.6 20.5-16.6 20.5 10.3 18.4-7.1 32.4-7.1 32.4"/>
    <path class="thorn" d="M376.3 475s17.4 14 7.1 32.4c0 0 16.6 2.9 16.6 18 0-15.1 16.6-18 16.6-18-10.3-18.4 7.1-32.4 7.1-32.4"/>
    <path class="thorn" d="M327.5 376.4s-14 17.4-32.4 7.1c0 0-5.4 16.6-20.5 16.6 15.1 0 20.5 16.6 20.5 16.6 18.4-10.3 32.4 7.1 32.4 7.1"/>
    <path class="thorn" d="M474.9 423.7s14-17.4 32.4-7.1c0 0 2.9-16.6 18-16.6-15.1 0-18-16.6-18-16.6-18.4 10.3-32.4-7.1-32.4-7.1"/>
    <path class="thorn" d="M365.5 332.1s-22.2 2.4-27.9-17.9c0 0-15.6 8-26.3-2.7 10.7 10.7 2.7 26.2 2.7 26.2 20.3 5.7 17.9 27.9 17.9 27.9"/>
    <path class="thorn" d="M436.2 469.8s22.2-2.4 27.9 17.9c0 0 13.8-9.7 24.5 1-10.7-10.7-1-24.5-1-24.5-20.3-5.7-17.9-27.9-17.9-27.9"/>
    <path class="thorn" d="M332 434.5s2.4 22.2-17.9 27.9c0 0 8 15.6-2.7 26.3 10.7-10.7 26.2-2.7 26.2-2.7 5.7-20.3 27.9-17.9 27.9-17.9"/>
    <path class="thorn" d="M469.8 363.8s-2.4-22.2 17.9-27.9c0 0-9.7-13.8 1-24.5-10.7 10.7-24.5 1-24.5 1-5.7 20.3-27.9 17.9-27.9 17.9"/>
    <circle class="st0" cx="361.4" cy="306.9" r="8.2"/>
    <circle class="st0" cx="438.6" cy="493.1" r="8.2"/>
    <path class="st0" d="M303.8 431c4.2-1.7 9 .3 10.7 4.4 1.7 4.2-.3 9-4.4 10.7-4.2 1.7-9-.3-10.7-4.4-1.8-4.2.2-9 4.4-10.7z"/>
    <circle class="st0" cx="493.1" cy="361.4" r="8.2"/>
    <path class="st0" d="M310 353.8c4.2 1.7 6.2 6.5 4.4 10.7-1.7 4.2-6.5 6.2-10.7 4.4-4.2-1.7-6.2-6.5-4.4-10.7 1.8-4.1 6.6-6.1 10.7-4.4zM496.2 431c4.2 1.7 6.2 6.5 4.4 10.7-1.7 4.2-6.5 6.2-10.7 4.4-4.2-1.7-6.2-6.5-4.4-10.7 1.8-4.2 6.5-6.2 10.7-4.4zM353.9 489.9c1.7-4.2 6.5-6.2 10.7-4.4 4.2 1.7 6.2 6.5 4.4 10.7-1.7 4.2-6.5 6.2-10.7 4.4-4.2-1.7-6.2-6.5-4.4-10.7zM431 303.7c1.7-4.2 6.5-6.2 10.7-4.4 4.2 1.7 6.2 6.5 4.4 10.7-1.7 4.2-6.5 6.2-10.7 4.4-4.2-1.7-6.2-6.5-4.4-10.7z"/>
    <path id="center_circle" d="M400 327.1c40.7 0 73.6 33 73.6 73.6s-33 73.6-73.6 73.6-73.6-33-73.6-73.6 32.9-73.6 73.6-73.6z" fill="none" stroke="#fff" stroke-width="5" stroke-linecap="round" stroke-linejoin="round" stroke-miterlimit="10"/>
  </g>
  <g id="Swirls">
    <path class="st3" d="
        M411.755,262.484c-3.043-0.841-3.11-7.179,1.863-7.676c7.001-0.699,7.929,4.065,7.527,6.527c-0.56,3.441-2.962,8.31-11.511,6.646
        c-3.201-0.624-6.979-4.223-8.968-7.812c-1.58-2.849-3.732-6.982-8.968-7.794c-8.733-1.354-10.951,3.205-11.511,6.646
        c-0.401,2.461,0.527,7.226,7.527,6.527c4.974-0.497,4.906-6.834,1.863-7.675"/>
    <path class="st3" d="
        M411.755,542.281c-3.043-0.842-3.11-7.179,1.863-7.676c7.001-0.698,7.929,4.066,7.527,6.527c-0.56,3.441-2.962,8.311-11.511,6.646
        c-3.201-0.624-6.979-4.223-8.968-7.812c-1.58-2.85-3.732-6.982-8.968-7.794c-8.733-1.354-10.951,3.204-11.511,6.646
        c-0.401,2.461,0.527,7.226,7.527,6.526c4.974-0.497,4.906-6.835,1.863-7.675"/>
    <path class="st3" d="
        M263.025,389.034c-0.841,3.043-7.179,3.11-7.675-1.863c-0.699-7.001,4.065-7.929,6.527-7.527c3.44,0.56,8.31,2.962,6.646,11.511
        c-0.623,3.201-4.223,6.979-7.812,8.968c-2.85,1.581-6.982,3.732-7.794,8.968c-1.354,8.733,3.204,10.95,6.646,11.511
        c2.461,0.402,7.226-0.526,6.526-7.526c-0.496-4.974-6.834-4.906-7.675-1.863"/>
    <path class="st3" d="
        M542.823,389.034c-0.842,3.043-7.179,3.11-7.676-1.863c-0.698-7.001,4.066-7.929,6.527-7.527c3.441,0.56,8.311,2.962,6.646,11.511
        c-0.624,3.201-4.223,6.979-7.812,8.968c-2.85,1.58-6.982,3.732-7.794,8.968c-1.354,8.732,3.204,10.95,6.646,11.511
        c2.461,0.401,7.226-0.526,6.526-7.526c-0.497-4.974-6.835-4.906-7.675-1.863"/>
    <path class="st3" d="
        M311.181,294.956c-2.746,1.557-7.276-2.877-4.11-6.745c4.456-5.445,8.481-2.732,9.938-0.708c2.038,2.829,3.782,7.97-3.44,12.838
        c-2.704,1.823-7.92,1.949-11.865,0.818c-3.132-0.897-7.576-2.298-11.853,0.83c-7.132,5.218-5.478,10.009-3.441,12.839
        c1.457,2.024,5.482,4.737,9.938-0.707c3.166-3.868-1.363-8.302-4.109-6.745"/>
    <path class="st3" d="
        M509.027,492.803c-2.746,1.557-7.275-2.877-4.109-6.745c4.456-5.444,8.481-2.731,9.938-0.707c2.038,2.829,3.782,7.971-3.439,12.838
        c-2.705,1.822-7.921,1.949-11.865,0.818c-3.133-0.898-7.576-2.299-11.853,0.83c-7.133,5.218-5.478,10.009-3.44,12.839
        c1.456,2.023,5.481,4.736,9.937-0.708c3.165-3.868-1.364-8.302-4.109-6.744"/>
    <path class="st3" d="
        M295.498,489.608c1.557,2.746-2.877,7.275-6.745,4.109c-5.445-4.456-2.732-8.48-0.708-9.938c2.828-2.037,7.97-3.782,12.838,3.439
        c1.823,2.704,1.949,7.921,0.818,11.865c-0.897,3.133-2.298,7.576,0.831,11.853c5.218,7.133,10.008,5.478,12.838,3.44
        c2.024-1.455,4.737-5.481-0.707-9.937c-3.868-3.166-8.302,1.363-6.745,4.109"/>
    <path class="st3" d="
        M493.345,291.761c1.557,2.747-2.876,7.275-6.745,4.11c-5.443-4.457-2.73-8.482-0.707-9.938c2.829-2.038,7.971-3.782,12.839,3.44
        c1.822,2.705,1.948,7.92,0.817,11.865c-0.897,3.132-2.298,7.576,0.831,11.853c5.217,7.133,10.008,5.478,12.838,3.44
        c2.024-1.457,4.737-5.481-0.707-9.937c-3.868-3.165-8.302,1.364-6.744,4.109"/>
    <path class="st3" d="
        M358.238,268.717c-3.133,0.388-5.621-5.443-1.216-7.805c6.2-3.325,8.881,0.722,9.451,3.149c0.801,3.394,0.444,8.811-8.091,10.545
        c-3.196,0.649-8.063-1.23-11.274-3.785c-2.551-2.028-6.12-5.023-11.269-3.769c-8.586,2.091-8.891,7.151-8.092,10.545
        c0.571,2.427,3.252,6.474,9.451,3.149c4.405-2.362,1.917-8.192-1.216-7.804"/>
    <path class="st3" d="
        M465.312,527.217c-3.133,0.387-5.62-5.443-1.215-7.805c6.2-3.324,8.881,0.723,9.451,3.148c0.801,3.395,0.444,8.813-8.091,10.545
        c-3.196,0.648-8.063-1.23-11.275-3.784c-2.55-2.028-6.119-5.022-11.268-3.769c-8.587,2.09-8.892,7.15-8.092,10.545
        c0.57,2.427,3.252,6.473,9.451,3.148c4.405-2.361,1.917-8.191-1.216-7.803"/>
    <path class="st3" d="
        M269.259,442.551c0.388,3.133-5.441,5.621-7.805,1.215c-3.324-6.2,0.722-8.881,3.15-9.451c3.393-0.8,8.811-0.443,10.545,8.092
        c0.648,3.195-1.231,8.063-3.785,11.274c-2.028,2.55-5.023,6.12-3.77,11.269c2.092,8.586,7.151,8.891,10.545,8.091
        c2.428-0.569,6.475-3.251,3.149-9.45c-2.362-4.406-8.191-1.918-7.804,1.215"/>
    <path class="st3" d="
        M527.758,335.476c0.388,3.134-5.441,5.622-7.804,1.217c-3.324-6.201,0.723-8.882,3.149-9.453c3.394-0.8,8.812-0.443,10.545,8.092
        c0.648,3.196-1.23,8.063-3.785,11.275c-2.028,2.55-5.022,6.12-3.769,11.268c2.091,8.585,7.15,8.89,10.545,8.091
        c2.427-0.571,6.474-3.252,3.149-9.451c-2.363-4.405-8.192-1.917-7.804,1.216"/>
    <path class="st3" d="
        M277.747,337.206c-1.941,2.489-7.823,0.125-6.379-4.659c2.033-6.735,6.79-5.77,8.91-4.456c2.965,1.833,6.544,5.916,1.735,13.177
        c-1.801,2.719-6.571,4.832-10.649,5.297c-3.236,0.369-7.879,0.775-10.632,5.302c-4.593,7.55-1.23,11.344,1.733,13.178
        c2.121,1.313,6.878,2.279,8.911-4.456c1.444-4.785-4.437-7.148-6.378-4.659"/>
    <path class="st3" d="
        M536.245,444.279c-1.941,2.489-7.822,0.127-6.377-4.658c2.033-6.736,6.79-5.77,8.91-4.457c2.966,1.834,6.545,5.916,1.735,13.178
        c-1.803,2.719-6.572,4.832-10.649,5.295c-3.238,0.369-7.879,0.777-10.633,5.304c-4.593,7.55-1.23,11.343,1.735,13.179
        c2.119,1.312,6.876,2.277,8.909-4.457c1.443-4.785-4.438-7.148-6.378-4.658"/>
    <path class="st3" d="
        M337.747,523.042c2.49,1.941,0.127,7.823-4.658,6.378c-6.735-2.033-5.77-6.789-4.456-8.91c1.833-2.965,5.915-6.545,13.177-1.735
        c2.719,1.8,4.832,6.571,5.297,10.649c0.369,3.237,0.775,7.879,5.303,10.632c7.551,4.593,11.343,1.23,13.178-1.734
        c1.313-2.118,2.279-6.876-4.456-8.909c-4.784-1.445-7.147,4.436-4.658,6.377"/>
    <path class="st3" d="
        M444.821,264.542c2.489,1.942,0.127,7.822-4.659,6.378c-6.734-2.034-5.769-6.792-4.456-8.911c1.834-2.965,5.916-6.544,13.178-1.735
        c2.719,1.802,4.831,6.572,5.296,10.649c0.37,3.236,0.776,7.878,5.304,10.632c7.549,4.593,11.342,1.231,13.178-1.735
        c1.313-2.12,2.278-6.877-4.456-8.91c-4.785-1.443-7.148,4.438-4.659,6.378"/>
  </g>
  <g id="Triangles">
    <polygon class="st0" points="346.857,241.599 325.571,250.416 329.846,230.634 	"/>
    <polygon class="st0" points="453.143,558.4 474.428,549.583 470.152,569.365 	"/>
    <polygon class="st0" points="241.599,453.143 250.416,474.429 230.634,470.153 	"/>
    <polygon class="st0" points="558.4,346.858 549.582,325.571 569.365,329.847 	"/>
    <polygon class="st0" points="250.416,325.571 241.599,346.857 230.634,329.846 	"/>
    <polygon class="st0" points="549.582,474.428 558.4,453.143 569.365,470.153 	"/>
    <polygon class="st0" points="325.571,549.584 346.857,558.4 329.845,569.365 	"/>
    <polygon class="st0" points="474.428,250.417 453.141,241.601 470.152,230.635 	"/>
    <polygon class="st0" points="346.857,241.599 325.571,250.416 329.846,230.634 	"/>
    <polygon class="st0" points="453.143,558.4 474.428,549.583 470.152,569.365 	"/>
    <polygon class="st0" points="241.599,453.143 250.416,474.429 230.634,470.153 	"/>
    <polygon class="st0" points="558.4,346.858 549.582,325.571 569.365,329.847 	"/>
    <polygon class="st0" points="250.416,325.571 241.599,346.857 230.634,329.846 	"/>
    <polygon class="st0" points="549.582,474.428 558.4,453.143 569.365,470.153 	"/>
    <polygon class="st0" points="325.571,549.584 346.857,558.4 329.845,569.365 	"/>
    <polygon class="st0" points="474.428,250.417 453.141,241.601 470.152,230.635 	"/>
    <polygon class="st0" points="316.976,255.011 297.818,267.811 298.152,247.575 	"/>
    <polygon class="st0" points="483.024,544.989 502.18,532.189 501.847,552.425 	"/>
    <polygon class="st0" points="255.011,483.023 267.811,502.182 247.575,501.848 	"/>
    <polygon class="st0" points="544.989,316.977 532.188,297.819 552.425,298.153 	"/>
    <polygon class="st0" points="238.77,356.184 234.275,378.781 220.202,364.235 	"/>
    <polygon class="st0" points="561.229,443.815 565.725,421.219 579.797,435.764 	"/>
    <polygon class="st0" points="356.184,561.23 378.78,565.725 364.235,579.797 	"/>
    <polygon class="st0" points="443.815,238.771 421.218,234.277 435.763,220.203 	"/>
    <polygon class="st0" points="267.81,297.819 255.009,316.976 247.574,298.152 	"/>
    <polygon class="st0" points="532.189,502.18 544.988,483.024 552.424,501.847 	"/>
    <polygon class="st0" points="297.819,532.188 316.976,544.99 298.153,552.425 	"/>
    <polygon class="st0" points="502.182,267.812 483.023,255.011 501.848,247.575 	"/>
    <polygon class="st0" points="234.275,421.22 238.77,443.816 220.202,435.763 	"/>
    <polygon class="st0" points="565.723,378.78 561.229,356.183 579.797,364.236 	"/>
    <polygon class="st0" points="421.219,565.725 443.816,561.229 435.764,579.797 	"/>
    <polygon class="st0" points="378.781,234.276 356.183,238.772 364.235,220.203 	"/>
  </g>
  <g id="Inner-Lines">
    <line class="st4" x1="400" y1="242.482" x2="400" y2="214.666"/>
    <line class="st4" x1="400" y1="557.519" x2="400" y2="585.334"/>
    <line class="st4" x1="242.482" y1="400" x2="214.666" y2="400"/>
    <line class="st4" x1="557.519" y1="400" x2="585.334" y2="400"/>
    <line class="st4" x1="288.618" y1="288.618" x2="268.949" y2="268.949"/>
    <line class="st4" x1="511.382" y1="511.382" x2="531.052" y2="531.052"/>
    <line class="st4" x1="288.618" y1="511.382" x2="268.949" y2="531.052"/>
    <line class="st4" x1="511.382" y1="288.618" x2="531.052" y2="268.949"/>
    <circle id="inner-line-circle" class="st4" cx="400" cy="400" r="157.518"/>
  </g>
  <g id="Globe-design">
    <path class="st5" d="
        M400,115.08c18.559-7.687,38.611-11.761,59.017-11.768c-18.18-7.538-38.109-11.707-59.016-11.707
        c-20.906,0-40.836,4.169-59.015,11.707C361.39,103.319,381.441,107.393,400,115.08z"/>
    <path class="st5" d="
        M400,684.92c-18.558,7.687-38.61,11.761-59.014,11.769c18.179,7.537,38.109,11.706,59.015,11.706
        c20.906,0,40.836-4.169,59.015-11.706C438.611,696.681,418.559,692.606,400,684.92z"/>
    <path class="st5" d="
        M115.08,400c-7.687-18.558-11.761-38.609-11.768-59.013c-7.538,18.179-11.706,38.107-11.706,59.012
        c0,20.905,4.168,40.834,11.706,59.013C103.319,438.609,107.394,418.558,115.08,400z"/>
    <path class="st5" d="
        M684.919,400c7.688,18.559,11.762,38.612,11.769,59.017c7.538-18.18,11.708-38.11,11.708-59.018
        c0-20.907-4.17-40.837-11.708-59.017C696.681,361.387,692.606,381.44,684.919,400z"/>
    <path class="st5" d="
        M198.531,198.531c7.687-18.559,18.986-35.618,33.408-50.051c-18.184,7.525-35.225,18.669-50.006,33.452
        c-14.783,14.782-25.927,31.822-33.452,50.006C162.914,217.516,179.973,206.219,198.531,198.531z"/>
    <path class="st5" d="
        M601.468,601.469c-7.688,18.559-18.985,35.618-33.408,50.052c18.185-7.524,35.227-18.671,50.009-33.453
        c14.783-14.782,25.928-31.823,33.452-50.008C637.087,582.483,620.026,593.781,601.468,601.469z"/>
    <path class="st5" d="
        M198.531,601.468c-18.558-7.687-35.617-18.984-50.049-33.406c7.525,18.185,18.669,35.224,33.451,50.005
        c14.782,14.782,31.821,25.928,50.005,33.452C217.516,637.085,206.218,620.025,198.531,601.468z"/>
    <path class="st5" d="
        M601.468,198.531c18.559,7.688,35.619,18.986,50.053,33.409c-7.524-18.185-18.669-35.226-33.452-50.008
        c-14.783-14.783-31.824-25.929-50.01-33.454C582.482,162.912,593.78,179.972,601.468,198.531z"/>
    <path class="st5" d="
        M340.986,103.312c-19.681-0.008-39.688,3.768-59.003,11.768c-19.314,8-36.131,19.479-50.043,33.4
        c18.854-7.802,38.939-11.712,59.027-11.712C305.17,122.565,322.137,111.127,340.986,103.312z"/>
    <path class="st5" d="
        M328.784,174.936c6.144-9.712,13.269-18.56,21.184-26.466c-18.847-7.795-38.922-11.701-59.001-11.701
        c-14.198,14.198-25.631,31.156-33.446,49.995c11.196-0.006,22.497,1.214,33.718,3.741
        C303.191,184.285,315.741,179.058,328.784,174.936z"/>
    <path class="st5" d="
        M509.034,663.231c-14.203,14.204-31.171,25.642-50.019,33.457c19.68,0.006,39.688-3.77,59.002-11.769
        c19.314-8,36.131-19.479,50.042-33.399C549.206,659.322,529.122,663.231,509.034,663.231z"/>
    <path class="st5" d="
        M471.216,625.065c-6.144,9.712-13.269,18.559-21.183,26.465c18.847,7.795,38.922,11.701,59.001,11.701
        c14.198-14.198,25.632-31.155,33.447-49.994c-11.196,0.007-22.498-1.215-33.72-3.741
        C496.809,615.715,484.259,620.941,471.216,625.065z"/>
    <path class="st5" d="
        M103.312,459.012c-0.008,19.682,3.768,39.689,11.768,59.005c8.001,19.315,19.479,36.134,33.401,50.045
        c-7.802-18.854-11.712-38.939-11.712-59.028C122.565,494.828,111.127,477.861,103.312,459.012z"/>
    <path class="st5" d="
        M174.936,471.217c-9.712-6.145-18.559-13.268-26.466-21.184c-7.794,18.847-11.7,38.922-11.7,59
        c14.198,14.198,31.155,25.632,49.994,33.447c-0.006-11.196,1.214-22.498,3.741-33.719
        C184.285,496.81,179.058,484.259,174.936,471.217z"/>
    <path class="st5" d="
        M696.688,340.982c0.007-19.68-3.769-39.687-11.769-59c-7.999-19.313-19.478-36.13-33.398-50.042
        c7.802,18.854,11.711,38.938,11.711,59.025C677.436,305.168,688.872,322.135,696.688,340.982z"/>
    <path class="st5" d="
        M625.065,328.784c9.712,6.145,18.558,13.268,26.465,21.184c7.795-18.847,11.701-38.924,11.701-59.003
        c-14.198-14.198-31.156-25.631-49.995-33.446c0.006,11.196-1.214,22.498-3.74,33.718
        C615.714,303.191,620.941,315.742,625.065,328.784z"/>
    <path class="st5" d="
        M148.481,231.938c-13.922,13.912-25.4,30.729-33.401,50.044c-8,19.315-11.776,39.323-11.768,59.004
        c7.815-18.849,19.253-35.816,33.457-50.021C136.77,270.878,140.679,250.793,148.481,231.938z"/>
    <path class="st5" d="
        M190.503,291.238c-2.526-11.221-3.747-22.522-3.741-33.719c-18.838,7.815-35.796,19.249-49.994,33.446
        c0,20.079,3.906,40.154,11.701,59.001c7.907-7.915,16.753-15.039,26.465-21.183C179.058,315.742,184.285,303.191,190.503,291.238z"
        />
    <path class="st5" d="
        M248.061,219.417c1.958-11.358,5.16-22.291,9.459-32.653c-20.396,0.011-40.438,4.084-58.989,11.768
        c-7.684,18.551-11.757,38.593-11.769,58.988c10.363-4.299,21.296-7.5,32.655-9.459C228.131,237.714,237.715,228.13,248.061,219.417
        z"/>
    <path class="st5" d="
        M163.989,400c0-6.828,0.307-13.583,0.875-20.264c-6.644-9.414-12.108-19.405-16.395-29.769
        c-14.414,14.429-25.706,31.482-33.39,50.033c7.684,18.551,18.976,35.604,33.389,50.033c4.287-10.364,9.751-20.355,16.395-29.77
        C164.296,413.583,163.989,406.828,163.989,400z"/>
    <path class="st5" d="
        M696.688,459.017c-7.815,18.848-19.252,35.814-33.456,50.018c0,20.088-3.909,40.172-11.711,59.025
        c13.921-13.912,25.399-30.729,33.398-50.043C692.919,498.704,696.694,478.697,696.688,459.017z"/>
    <path class="st5" d="
        M651.53,450.032c-7.907,7.914-16.753,15.039-26.465,21.183c-4.124,13.044-9.351,25.595-15.569,37.548
        c2.526,11.221,3.746,22.522,3.74,33.719c18.839-7.815,35.797-19.249,49.995-33.447C663.231,488.955,659.325,468.879,651.53,450.032
        z"/>
    <path class="st5" d="
        M551.94,580.582c-1.959,11.359-5.16,22.292-9.459,32.655c20.395-0.011,40.437-4.085,58.986-11.769
        c7.684-18.551,11.758-38.593,11.769-58.987c-10.363,4.298-21.295,7.5-32.653,9.458C571.87,562.285,562.286,571.869,551.94,580.582z
        "/>
    <path class="st5" d="
        M636.011,400c0,6.828-0.307,13.583-0.875,20.264c6.645,9.414,12.108,19.404,16.395,29.769
        c14.413-14.43,25.705-31.481,33.389-50.032c-7.684-18.55-18.976-35.603-33.389-50.032c-4.286,10.364-9.75,20.354-16.395,29.769
        C635.704,386.417,636.011,393.172,636.011,400z"/>
    <path class="st5" d="
        M290.967,663.231c-20.089,0-40.174-3.91-59.029-11.713c13.912,13.921,30.729,25.4,50.044,33.401
        c19.315,8,39.323,11.775,59.004,11.769C322.138,688.873,305.171,677.436,290.967,663.231z"/>
    <path class="st5" d="
        M291.237,609.496c-11.22,2.526-22.521,3.747-33.717,3.74c7.815,18.838,19.249,35.797,33.447,49.995
        c20.078,0,40.154-3.906,59.001-11.701c-7.916-7.907-15.04-16.753-21.184-26.465C315.742,620.941,303.191,615.715,291.237,609.496z" />
    <path class="st5" d="
        M400,636.011c-6.828,0-13.583-0.307-20.264-0.875c-9.415,6.645-19.404,12.108-29.769,16.395
        c14.429,14.414,31.482,25.705,50.032,33.39c18.551-7.685,35.604-18.976,50.033-33.39c-10.364-4.286-20.355-9.75-29.77-16.395
        C413.583,635.704,406.828,636.011,400,636.011z"/>
    <path class="st5" d="
        M219.417,551.939c-11.359-1.959-22.291-5.16-32.654-9.459c0.011,20.395,4.084,40.437,11.768,58.987
        c18.551,7.684,38.594,11.758,58.989,11.769c-4.299-10.362-7.5-21.294-9.459-32.652C237.715,571.87,228.13,562.285,219.417,551.939z
        "/>
    <path class="st5" d="
        M568.059,148.478c-13.911-13.92-30.728-25.397-50.041-33.398s-39.322-11.775-59.001-11.768
        c18.848,7.815,35.814,19.252,50.018,33.456C529.122,136.768,549.205,140.678,568.059,148.478z"/>
    <path class="st5" d="
        M508.762,190.504c11.222-2.527,22.523-3.747,33.72-3.741c-7.815-18.838-19.249-35.796-33.447-49.995
        c-20.079,0-40.155,3.906-59.003,11.702c7.915,7.907,15.04,16.753,21.185,26.465C484.259,179.058,496.808,184.285,508.762,190.504z"
        />
    <path class="st5" d="
        M400,163.989c6.828,0,13.583,0.307,20.264,0.875c9.414-6.644,19.404-12.108,29.768-16.395
        c-14.429-14.414-31.48-25.706-50.031-33.39c-18.55,7.684-35.604,18.975-50.033,33.39c10.365,4.286,20.355,9.75,29.77,16.394
        C386.417,164.295,393.172,163.989,400,163.989z"/>
    <path class="st5" d="
        M580.582,248.06c11.359,1.959,22.291,5.16,32.654,9.459c-0.011-20.396-4.085-40.438-11.769-58.988
        c-18.55-7.684-38.592-11.757-58.986-11.768c4.299,10.364,7.501,21.296,9.459,32.655
        C562.285,228.131,571.869,237.715,580.582,248.06z"/>
  </g>
  <g id="Front-rings">
	    <path id="main-ring" d="M400 53.6c191.3 0 346.4 155.1 346.4 346.4S591.3 746.4 400 746.4 53.6 591.3 53.6 400 208.7 53.6 400 53.6z" fill="none" stroke="#fff" stroke-width="8" stroke-miterlimit="10"/>
	    <circle id="dotted-ring-outer" class="st7" cx="400" cy="400" r="326"/>
	    <circle id="dotted-ring-inner1" class="st7" cx="400" cy="400" r="218.6" />
	    <circle id="dotted-ring-inner2" class="st7" cx="400" cy="400" r="202" />
  </g>
</svg>